<?xml version="1.0" encoding="UTF-8"?><svg id="Layer_2" xmlns="http://www.w3.org/2000/svg" viewBox="0 0 188.61 138.22"><defs><style>.cls-1{fill:#477a0c;stroke-width:0px;}</style></defs><g id="Layer_1-2"><path class="cls-1" d="m160.13,85.7l-1.41,16.42c-.44,5.11-4.72,9.04-9.85,9.04h-10.76s1.65-19.5,1.65-19.5c.24-.03.47-.06.71-.1,6.55-1.02,13.15-2.99,19.65-5.86Z"/><path class="cls-1" d="m188.61,27.34c0,.06-.01.12-.01.18-.72,10.09-9.12,17.92-19.24,17.92h-5.78l-2.64,30.88c-2.26-.91-5.29-1.92-8.28-2.85-6.47-2.02-10.66-8.28-10.09-15.04l1.1-13.04h-10.33c2.28-4.39,4.07-8.62,5.45-12.26l1.81-4.78-4.88,1.5c-5.47,1.68-10.51,3.78-15.09,6.26l.61-8.5s63.1-.73,67.37-.27Z"/><path class="cls-1" d="m17.28,27.25h12.37l-7.34,83.95H2.21s6.66-76.24,6.66-76.24c.38-4.37,4.03-7.71,8.41-7.71Z"/><path class="cls-1" d="m62.36,100.15l-.97,11.05h-20.1l1.85-20.75c3.76.58,7.48.88,11.13.88h0c4.76,0,8.5,4.07,8.09,8.82Z"/><path class="cls-1" d="m68.75,27.25l-3.18,36.35c-1.21-.17-2.38-.3-3.56-.39-1.6-.13-3.27-.19-4.95-.19s-3.41.06-5.17.19c-2.17.16-4.32.41-6.45.73l3.2-36.69h20.11Z"/><path class="cls-1" d="m89.8,73.67c-9.21-9.41-25.55-32.92-13.89-73.67,11.75,17.67,27.01,48.22,13.89,73.67Z"/><path class="cls-1" d="m127.64,89.03c-12.27-.12-23.14-5.52-33.64-10.86.55-.31,1.09-.6,1.65-.88,3.47-1.77,7.4-3.16,11.68-4.12,4.44-.99,9.17-1.49,14.08-1.49,5.73,0,11.77.69,17.95,2.04,6.22,1.37,12.7,3.43,19.28,6.15.72.3,1.46.61,2.19.93-.85.42-1.66.81-2.45,1.17-6.73,3.12-13.55,5.23-20.3,6.28-3.32.52-6.7.79-10.04.79h-.4Z"/><path class="cls-1" d="m136.45,32.24c-7.04,18.64-20.52,40.73-42.45,42.55,3.48-22.15,22.05-36.26,42.45-42.55Z"/><path class="cls-1" d="m136.45,32.24c-7.04,18.64-20.52,40.73-42.45,42.55,3.48-22.15,22.05-36.26,42.45-42.55Z"/><path class="cls-1" d="m86.84,77.03c-7.23,5.27-15.14,8.32-23.29,9.59-15.85,2.48-32.65-1.77-47.28-9.51,10.67-4.82,23.39-9.01,35.91-9.91,3.2-.23,6.38-.25,9.51,0,1.19.09,2.36.22,3.53.39,7.83,1.13,15.23,4.04,21.62,9.44Z"/><path class="cls-1" d="m88.67,80.91c3.22,13.13-4.53,23.99-15.26,30.67-.24-11.67,2.54-26.29,15.26-30.67Z"/><path class="cls-1" d="m113.3,110.86c-.3.29-.65.54-1.05.73-.77.4-1.6.52-2.4.42-1.91-.24-3.62-1.76-3.81-3.82-.82-7.4-3.97-14.51-8.51-20.49-.49-.65-1.06-1.34-1.06-1.34-.73-.87-1.92-2.26-3.76-3.6-.55-.4-1.03-.71-1.4-.93-.01-.01-.01-.03-.02-.04,1.26-.02,2.39-.61,3.12-1.52,1.98,1.91,3.98,3.83,5.91,5.8,1.74,1.79,3.42,3.63,5,5.57,3.42,4.24,6.33,8.97,8.84,14.06.93,1.76.52,3.87-.86,5.16Z"/><path class="cls-1" d="m157.51,120.91h-5.53v-4.01h15.29v4.01h-5.48v17.31h-4.28v-17.31Z"/><path class="cls-1" d="m20.91,131.33c-.96,4-6.21,7.28-10.95,6.86-5.29-.47-9.53-4.77-9.93-9.92-.43-5.46,3.18-10.46,8.66-11.59,5.67-1.18,10.43,2.27,12.02,6.14h-5.19c-1.18-1.23-2.84-2-4.68-2-3.6,0-6.52,2.92-6.52,6.51s2.92,6.52,6.52,6.52c2.09,0,3.95-.99,5.13-2.52h4.94Z"/><path class="cls-1" d="m61.14,138.22h-4.78c0-4.47-.03-7.15,0-11.62.03-3.65,1.56-6.54,4.74-8.38,6.22-3.6,13.66.63,14.2,7.38.05.62.07,1.24.07,1.86,0,3.29,0,6.57,0,9.86v.91h-4.75c0-.32,0-.61,0-.9,0-3.53-.01-7.06,0-10.59,0-1.35-.35-2.55-1.28-3.55-1.29-1.4-3.36-1.9-5.12-1.23-1.79.68-3.06,2.38-3.08,4.26-.03,3.66-.02,12-.02,12Z"/><path class="cls-1" d="m115.72,138.22c-5.97,0-10.91-4.73-10.91-10.67s4.88-10.78,10.91-10.78,10.91,4.79,10.91,10.78-4.93,10.67-10.91,10.67Zm0-17.56c-3.83,0-6.73,3.17-6.73,6.87s2.96,6.81,6.73,6.81,6.73-3.14,6.73-6.81-2.91-6.87-6.73-6.87Z"/><path class="cls-1" d="m38.09,138.22c-5.97,0-10.91-4.73-10.91-10.67s4.88-10.78,10.91-10.78,10.91,4.79,10.91,10.78-4.93,10.67-10.91,10.67Zm0-17.56c-3.83,0-6.73,3.17-6.73,6.87s2.96,6.81,6.73,6.81,6.73-3.14,6.73-6.81-2.91-6.87-6.73-6.87Z"/><path class="cls-1" d="m88.61,126.87h0s7.83,0,7.83,0v4.13h-7.83v7.22h-4.69v-11.35c0-5.5,4.46-9.97,9.97-9.97h2.93v4.13h-2.37c-3.22,0-5.84,2.61-5.84,5.84Z"/><path class="cls-1" d="m144.28,116.89v4.17c-.24.05-.46.1-.69.14-2.61.37-4.53,2.48-4.57,5.11-.04,2.95-.01,11.85-.01,11.85h-4.26s-.04-.58-.04-.82c0-3.48,0-6.97,0-10.45,0-2.32.57-4.45,2.02-6.3,1.74-2.21,4.03-3.42,6.82-3.7.21-.02.43,0,.73,0Z"/></g></svg>
