<?xml version="1.0" encoding="UTF-8"?><svg id="Layer_2" xmlns="http://www.w3.org/2000/svg" viewBox="0 0 144.56 112.04"><defs><style>.cls-1{fill:#f2efe2;stroke-width:0px;}</style></defs><g id="Layer_1-2"><path class="cls-1" d="m73.53,73.67c-9.21-9.41-25.55-32.92-13.89-73.67,11.75,17.67,27.01,48.22,13.89,73.67Z"/><path class="cls-1" d="m111.37,89.03c-12.27-.12-23.14-5.52-33.64-10.86.55-.31,1.09-.6,1.65-.88,3.47-1.77,7.4-3.16,11.68-4.12,4.44-.99,9.17-1.49,14.08-1.49,5.73,0,11.77.69,17.95,2.04,6.22,1.37,12.7,3.43,19.28,6.15.72.3,1.46.61,2.19.93-.85.42-1.66.81-2.45,1.17-6.73,3.12-13.55,5.23-20.3,6.28-3.32.52-6.7.79-10.04.79h-.4Z"/><path class="cls-1" d="m120.18,32.24c-7.04,18.64-20.52,40.73-42.45,42.55,3.48-22.15,22.05-36.26,42.45-42.55Z"/><path class="cls-1" d="m120.18,32.24c-7.04,18.64-20.52,40.73-42.45,42.55,3.48-22.15,22.05-36.26,42.45-42.55Z"/><path class="cls-1" d="m70.57,77.03c-7.23,5.27-15.14,8.32-23.29,9.59-15.85,2.48-32.65-1.77-47.28-9.51,10.67-4.82,23.39-9.01,35.91-9.91,3.2-.23,6.38-.25,9.51,0,1.19.09,2.36.22,3.53.39,7.83,1.13,15.23,4.04,21.62,9.44Z"/><path class="cls-1" d="m72.41,80.91c3.22,13.13-4.53,23.99-15.26,30.67-.24-11.67,2.54-26.29,15.26-30.67Z"/><path class="cls-1" d="m97.03,110.86c-.3.29-.65.54-1.05.73-.77.4-1.6.52-2.4.42-1.91-.24-3.62-1.76-3.81-3.82-.82-7.4-3.97-14.51-8.51-20.49-.49-.65-1.06-1.34-1.06-1.34-.73-.87-1.92-2.26-3.76-3.6-.55-.4-1.03-.71-1.4-.93-.01-.01-.01-.03-.02-.04,1.26-.02,2.39-.61,3.12-1.52,1.98,1.91,3.98,3.83,5.91,5.8,1.74,1.79,3.42,3.63,5,5.57,3.42,4.24,6.33,8.97,8.84,14.06.93,1.76.52,3.87-.86,5.16Z"/></g></svg>
